# xmcd CD database file
#
# Track frame offsets:
#	150
#	17549
#	32739
#	48112
#	64506
#
# Disc length: 1150 seconds
#
# Revision: 4
# Processed by: cddbd v1.5.1PL0 Copyright (c) Steve Scherf et al.
# Submitted via: CDex 1.51
#
DISCID=30047c05
DTITLE=P・K・O - Black Generation
DYEAR=2002
DGENRE=Vocal
TTITLE0=Knighthood〜世界で一番の夢を〜
TTITLE1=Red Emotion
TTITLE2=ブルーハート
TTITLE3=黄昏のTreasere Hunter
TTITLE4=Voice Message
EXTD=
EXTT0=
EXTT1=
EXTT2=
EXTT3=
EXTT4=
PLAYORDER=
